<svg width="100%" height="100%" viewBox="0 0 427 113" fill="none" xmlns="http://www.w3.org/2000/svg">
<circle cx="24.5" cy="70.5" r="19.5169" stroke="url(#paint0_linear_3_3)" stroke-width="9.9661"/>
<circle cx="318" cy="40" r="7.16949" stroke="url(#paint1_linear_3_3)" stroke-width="3.66102"/>
<path d="M112.698 45.86C105.054 45.86 99.776 48.772 96.955 52.867C94.316 48.408 89.675 45.86 82.395 45.86C76.389 45.86 71.566 48.226 68.563 51.593V47.043H55.823V94.909H69.291V66.426C69.382 62.422 72.294 57.872 78.118 57.872C83.76 57.872 86.672 62.331 86.672 67.7V94.909H100.14V66.426C100.231 62.422 103.052 57.872 109.058 57.872C114.7 57.872 117.521 62.331 117.521 67.7V94.909H130.989V65.152C130.989 54.505 124.71 45.86 112.698 45.86ZM150.896 75.162H186.841C187.023 73.979 187.114 72.159 187.114 70.066C187.114 58.054 177.923 45.951 162.453 45.951C148.712 45.951 137.701 57.144 137.701 71.067C137.701 85.354 147.802 96.183 163.363 96.183C175.102 96.183 181.29 91.36 185.021 85.9L174.738 79.075C172.645 82.897 169.642 84.99 163.727 84.99C157.357 84.99 152.443 81.441 150.896 75.162ZM150.714 66.335C152.079 59.783 156.629 56.143 162.817 56.143C169.005 56.143 173.191 60.056 174.465 66.335H150.714ZM230.589 47.043V52.321C227.131 48.317 222.126 45.951 215.756 45.951C202.015 45.951 192.005 56.689 192.005 69.793C192.005 82.897 201.924 93.362 215.756 93.362C222.126 93.362 227.131 90.996 230.589 86.992V88.994C230.589 96.365 225.493 101.188 216.848 101.188C210.842 101.188 206.11 98.913 204.108 93.908L192.642 98.367C195.827 106.739 203.38 112.472 216.757 112.472C233.41 112.472 243.056 102.371 243.056 87.72V47.043H230.589ZM217.485 83.079C210.569 83.079 205.382 77.528 205.382 70.43C205.382 63.332 210.569 57.781 217.576 57.781C224.765 57.781 229.77 63.15 229.77 70.43C229.77 77.619 224.765 83.079 217.485 83.079ZM288.975 47.043V52.867C285.517 48.954 280.512 46.77 274.233 46.77C260.401 46.77 250.391 56.689 250.391 71.067C250.391 85.354 260.401 96.183 274.233 96.183C280.512 96.183 285.517 93.817 288.975 89.722V95H301.442V47.043H288.975ZM276.144 84.262C268.955 84.262 263.768 78.711 263.768 71.067C263.768 63.423 268.955 57.781 276.144 57.781C283.515 57.781 288.52 63.241 288.52 71.067C288.52 78.893 283.515 84.262 276.144 84.262Z" fill="black"/>
<defs>
<linearGradient id="paint0_linear_3_3" x1="0" y1="46" x2="49" y2="95" gradientUnits="userSpaceOnUse">
<stop offset="0.125" stop-color="#0029FF"/>
<stop offset="0.880208" stop-color="#00B0FC"/>
</linearGradient>
<linearGradient id="paint1_linear_3_3" x1="309" y1="31" x2="327" y2="49" gradientUnits="userSpaceOnUse">
<stop offset="0.125" stop-color="#0029FF"/>
<stop offset="0.880208" stop-color="#00B0FC"/>
</linearGradient>
</defs>
</svg>
